<?xml version="1.0" encoding="utf-8"?>
<!-- Generator: Adobe Illustrator 21.1.0, SVG Export Plug-In . SVG Version: 6.00 Build 0)  -->
<svg version="1.1" id="Layer_1" xmlns="http://www.w3.org/2000/svg" xmlns:xlink="http://www.w3.org/1999/xlink" x="0px" y="0px"
	 viewBox="0 0 100.4 100.4" style="enable-background:new 0 0 100.4 100.4;" xml:space="preserve">
<style type="text/css">
	.st0{fill:none;stroke:#2BACE2;stroke-width:0.3528;stroke-miterlimit:10;}
	.st1{fill:none;stroke:#EC2227;stroke-width:0.3528;stroke-miterlimit:10;}
</style>
<g>
	<g>
		<g>
			<path class="st0" d="M100,6.7"/>
			<path class="st0" d="M100,13.3"/>
			<path class="st0" d="M100,20"/>
			<path class="st0" d="M100,26.7"/>
			<path class="st0" d="M100,33.3"/>
			<path class="st0" d="M100,40"/>
			<path class="st0" d="M100,46.7"/>
			<path class="st0" d="M100,53.3"/>
			<path class="st0" d="M100,60"/>
			<path class="st0" d="M100,66.7"/>
			<path class="st0" d="M100,73.3"/>
			<path class="st0" d="M100,80"/>
			<path class="st0" d="M100,86.7"/>
			<path class="st0" d="M100,93.3"/>
			<path class="st0" d="M100,100"/>
		</g>
		<path class="st1" d="M100,6.7"/>
		<path class="st1" d="M100,93.3"/>
	</g>
</g>
<path d="M84.2,92L72.7,69c-0.6-1.1-0.7-1.4-1-2L57.4,38.5V17.2h6.2c0.8,0,1.5-0.7,1.5-1.5V8c0-0.8-0.7-1.5-1.5-1.5H32.8
	c-0.8,0-1.5,0.7-1.5,1.5v7.7c0,0.8,0.7,1.5,1.5,1.5H39v21.2L24.7,67c-0.3,0.6-0.5,1.1-1,2L12.2,92c-0.2,0.5-0.2,1,0.1,1.5
	s0.8,0.7,1.3,0.7h69.3c0.5,0,1-0.3,1.3-0.7S84.4,92.5,84.2,92z M41.8,39.5c0.1-0.2,0.2-0.4,0.2-0.7V15.7c0-0.8-0.7-1.5-1.5-1.5h-6.2
	V9.5h27.8v4.7h-6.2c-0.8,0-1.5,0.7-1.5,1.5v23.1c0,0.2,0.1,0.5,0.2,0.7l14.1,28.1c-0.5,0.3-0.8,0.6-1.2,0.8c-0.6,0.5-1,0.8-2,0.8
	s-1.3-0.3-2-0.8c-0.8-0.6-1.9-1.5-3.8-1.5c-2,0-3,0.9-3.8,1.5c-0.6,0.5-1,0.8-1.9,0.8c-0.9,0-1.3-0.3-1.9-0.8
	c-0.8-0.6-1.9-1.5-3.8-1.5c-2,0-3,0.9-3.8,1.5c-0.6,0.5-1,0.8-1.9,0.8s-1.3-0.3-1.9-0.8c-0.8-0.6-1.9-1.5-3.8-1.5s-3,0.9-3.8,1.5
	c-0.6,0.5-1,0.8-1.9,0.8s-1.3-0.3-1.9-0.8c-0.3-0.3-0.7-0.6-1.2-0.8L41.8,39.5z M16,91.2l10.4-20.9c0.2,0.1,0.4,0.3,0.6,0.5
	c0.8,0.6,1.9,1.5,3.8,1.5c2,0,3-0.9,3.8-1.5c0.6-0.5,1-0.8,1.9-0.8s1.3,0.3,1.9,0.8c0.8,0.6,1.9,1.5,3.8,1.5s3-0.9,3.8-1.5
	c0.6-0.5,1-0.8,1.9-0.8c0.9,0,1.3,0.3,1.9,0.8c0.8,0.6,1.9,1.5,3.8,1.5c2,0,3-0.9,3.8-1.5c0.6-0.5,1-0.8,1.9-0.8
	c0.9,0,1.3,0.3,2,0.8c0.8,0.6,1.9,1.5,3.8,1.5s3-0.9,3.8-1.5c0.2-0.2,0.4-0.3,0.6-0.5l10.4,20.9H16z"/>
</svg>
