<?xml version="1.0" encoding="utf-8"?>
<!-- Generator: Adobe Illustrator 21.1.0, SVG Export Plug-In . SVG Version: 6.00 Build 0)  -->
<svg version="1.1" id="Layer_1" xmlns="http://www.w3.org/2000/svg" xmlns:xlink="http://www.w3.org/1999/xlink" x="0px" y="0px"
	 viewBox="0 0 100.4 100.4" style="enable-background:new 0 0 100.4 100.4;" xml:space="preserve">
<path d="M92.6,67.5c0-0.1,0-0.1,0-0.2V30c0-9-7.3-16.2-16.2-16.2H63.1c-0.8,0-1.5,0.7-1.5,1.5s0.7,1.5,1.5,1.5h13.3
	c7.3,0,13.2,5.9,13.2,13.2v30.9c-2.3-3.1-5.7-5.3-9.5-6.3c-4.4-1.1-8.9-0.4-12.8,2c-3.9,2.3-6.6,6-7.6,10.4
	c-0.2,0.8-0.3,1.7-0.4,2.5H40.7c-0.2-2.5-1-5-2.4-7.3c-2.3-3.9-6-6.6-10.4-7.6c-4.4-1.1-8.9-0.4-12.8,2c-1.8,1.1-3.4,2.6-4.7,4.2V30
	c0-7.3,5.9-13.2,13.2-13.2H37c0.8,0,1.5-0.7,1.5-1.5s-0.7-1.5-1.5-1.5H23.7c-9,0-16.2,7.3-16.2,16.2v37.2c-2.1,9,3.5,18,12.4,20.2
	c1.3,0.3,2.7,0.5,4,0.5c7.6,0,14.5-5.2,16.4-12.9c0.2-0.8,0.3-1.7,0.4-2.5h18.7c0.2,2.5,1,5,2.4,7.3c2.3,3.9,6,6.6,10.4,7.6
	c1.3,0.3,2.7,0.5,4,0.5c7.6,0,14.5-5.2,16.4-12.9C93.1,72.5,93.2,69.9,92.6,67.5z M37.4,74.3c-1.8,7.4-9.3,12-16.8,10.2
	c-7.4-1.8-12-9.3-10.2-16.8c0.9-3.6,3.1-6.6,6.3-8.6c2.2-1.3,4.7-2,7.2-2c1.1,0,2.2,0.1,3.3,0.4c3.6,0.9,6.6,3.1,8.6,6.3
	C37.7,66.9,38.3,70.7,37.4,74.3z M89.6,74.3c-1.8,7.4-9.3,12-16.8,10.2c-3.6-0.9-6.6-3.1-8.6-6.3c-1.3-2.2-2-4.6-2-7.1
	c0,0,0-0.1,0-0.1c0,0,0-0.1,0-0.1c0-1.1,0.1-2.1,0.4-3.2c0.9-3.6,3.1-6.6,6.3-8.6c2.2-1.3,4.7-2,7.2-2c1.1,0,2.2,0.1,3.3,0.4
	c3.6,0.9,6.6,3.1,8.6,6.3C89.9,66.9,90.5,70.7,89.6,74.3z"/>
</svg>
