<?xml version="1.0" encoding="utf-8"?>
<!-- Generator: Adobe Illustrator 21.1.0, SVG Export Plug-In . SVG Version: 6.00 Build 0)  -->
<svg version="1.1" id="Layer_1" xmlns="http://www.w3.org/2000/svg" xmlns:xlink="http://www.w3.org/1999/xlink" x="0px" y="0px"
	 viewBox="0 0 100.4 100.4" style="enable-background:new 0 0 100.4 100.4;" xml:space="preserve">
<path d="M76.9,34v-2.7c3.4-2,5.6-5.7,5.6-9.7v-4.8c0-6.2-5-11.2-11.2-11.2S60,10.6,60,16.8v4.8c0,3.9,2,7.5,5.4,9.5v2.9
	c-1.5,0.4-2.9,1-4.3,1.8c-2.2-5.1-7.3-8.7-13.2-8.7c-5.8,0-10.7,3.4-13,8.4c-1.3-0.6-2.6-1.2-3.9-1.5v-2.7c3.4-2,5.6-5.7,5.6-9.7
	v-4.8c0-6.2-5-11.2-11.2-11.2s-11.2,5-11.2,11.2v4.8c0,3.9,2,7.5,5.4,9.5v2.9c-9,2.6-15.1,10.7-15.1,20.1c0,0.8,0.7,1.5,1.5,1.5
	h29.6c0.1,0,0.2,0,0.3,0c1.2,1.9,2.9,3.5,4.9,4.7v4.5c-11.9,3.2-20,13.9-20,26.3c0,0.8,0.7,1.5,1.5,1.5h51.5c0.8,0,1.5-0.7,1.5-1.5
	c0-12.3-8.5-23.2-20.3-26.3v-4.3c2.1-1.2,3.8-2.8,5.1-4.8h30.7c0.8,0,1.5-0.7,1.5-1.5C92.2,44.8,85.8,36.5,76.9,34z M7.5,52.7
	c0.6-7.8,6.2-14.2,13.9-16c0.7-0.2,1.2-0.8,1.2-1.5v-5c0-0.6-0.3-1.1-0.8-1.3c-2.8-1.4-4.6-4.2-4.6-7.3v-4.8c0-4.5,3.7-8.2,8.2-8.2
	s8.2,3.7,8.2,8.2v4.8c0,3.1-1.9,6-4.7,7.4c-0.5,0.2-0.9,0.8-0.9,1.4v4.8c0,0.7,0.5,1.3,1.2,1.5c1.7,0.4,3.3,1,4.8,1.8
	c-0.2,1-0.3,2-0.3,3.1V48c0,1.6,0.3,3.2,0.8,4.7L7.5,52.7L7.5,52.7z M52.8,58.2c-0.5,0.2-0.9,0.8-0.9,1.4v6.4c0,0.7,0.5,1.3,1.2,1.5
	c10.6,2.3,18.4,11.5,19.1,22.2H23.8c0.6-10.7,8.2-19.7,18.8-22.1c0.7-0.2,1.2-0.8,1.2-1.5v-6.6c0-0.6-0.3-1.1-0.8-1.3
	c-3.9-1.9-6.3-5.8-6.3-10.1v-6.4c0-6.3,5.1-11.3,11.3-11.3s11.3,5.1,11.3,11.3V48C59.3,52.3,56.8,56.3,52.8,58.2z M61.5,52.7
	c0.5-1.5,0.8-3.1,0.8-4.7v-6.4c0-0.9-0.1-1.9-0.3-2.7c1.6-1,3.4-1.7,5.2-2.1c0.7-0.2,1.2-0.8,1.2-1.5v-5c0-0.6-0.3-1.1-0.8-1.3
	c-2.8-1.4-4.6-4.2-4.6-7.3v-4.8c0-4.5,3.7-8.2,8.2-8.2c4.5,0,8.2,3.7,8.2,8.2v4.8c0,3.1-1.9,6-4.7,7.4c-0.5,0.2-0.9,0.8-0.9,1.4v4.8
	c0,0.7,0.5,1.3,1.2,1.5c7.7,1.7,13.4,8.3,14.1,16L61.5,52.7L61.5,52.7z"/>
</svg>
